<svg xmlns="http://www.w3.org/2000/svg" width="116.989" height="90.005" viewBox="0 0 116.989 90.005">
  <g id="zwrot" transform="translate(-0.591)">
    <path id="Path_80" data-name="Path 80" d="M9.2,44.533v-36H115.087V72.4L99.917,87.511H9.2V54.889" fill="none" stroke="#000" stroke-miterlimit="10" stroke-width="4.988"/>
    <line id="Line_39" data-name="Line 39" y1="15.27" transform="translate(19.918)" fill="none" stroke="#000" stroke-miterlimit="10" stroke-width="4.978"/>
    <line id="Line_40" data-name="Line 40" y1="15.27" transform="translate(105.681)" fill="none" stroke="#000" stroke-miterlimit="10" stroke-width="4.978"/>
    <path id="Path_81" data-name="Path 81" d="M16.393,37.365,9.2,44.533,2,37.365" fill="none" stroke="#000" stroke-miterlimit="10" stroke-width="3.99"/>
    <rect id="Rectangle_7" data-name="Rectangle 7" width="2.399" height="2.389" transform="translate(36.652 38.464)"/>
    <rect id="Rectangle_8" data-name="Rectangle 8" width="2.399" height="2.389" transform="translate(48.647 38.464)"/>
    <rect id="Rectangle_9" data-name="Rectangle 9" width="2.399" height="2.389" transform="translate(60.642 38.464)"/>
    <rect id="Rectangle_10" data-name="Rectangle 10" width="2.399" height="2.389" transform="translate(72.637 38.464)"/>
    <rect id="Rectangle_11" data-name="Rectangle 11" width="2.399" height="2.389" transform="translate(84.632 38.464)"/>
    <rect id="Rectangle_12" data-name="Rectangle 12" width="2.399" height="2.389" transform="translate(96.626 38.464)"/>
    <rect id="Rectangle_13" data-name="Rectangle 13" width="2.399" height="2.389" transform="translate(24.658 48.022)"/>
    <rect id="Rectangle_14" data-name="Rectangle 14" width="2.399" height="2.389" transform="translate(36.652 48.022)"/>
    <rect id="Rectangle_15" data-name="Rectangle 15" width="2.399" height="2.389" transform="translate(48.647 48.022)"/>
    <rect id="Rectangle_16" data-name="Rectangle 16" width="2.399" height="2.389" transform="translate(60.642 48.022)"/>
    <rect id="Rectangle_17" data-name="Rectangle 17" width="2.399" height="2.389" transform="translate(72.637 48.022)"/>
    <rect id="Rectangle_18" data-name="Rectangle 18" width="2.399" height="2.389" transform="translate(84.632 48.022)"/>
    <rect id="Rectangle_19" data-name="Rectangle 19" width="2.399" height="2.389" transform="translate(96.626 48.022)"/>
    <rect id="Rectangle_20" data-name="Rectangle 20" width="2.399" height="2.389" transform="translate(24.658 57.579)"/>
    <rect id="Rectangle_21" data-name="Rectangle 21" width="2.399" height="2.389" transform="translate(36.652 57.579)"/>
    <rect id="Rectangle_22" data-name="Rectangle 22" width="2.399" height="2.389" transform="translate(48.647 57.579)"/>
    <rect id="Rectangle_23" data-name="Rectangle 23" width="2.399" height="2.389" transform="translate(60.642 57.579)"/>
    <rect id="Rectangle_24" data-name="Rectangle 24" width="2.399" height="2.389" transform="translate(72.637 57.579)"/>
    <rect id="Rectangle_25" data-name="Rectangle 25" width="2.399" height="2.389" transform="translate(84.632 57.579)"/>
    <rect id="Rectangle_26" data-name="Rectangle 26" width="2.399" height="2.389" transform="translate(96.626 57.579)"/>
    <rect id="Rectangle_27" data-name="Rectangle 27" width="2.399" height="2.389" transform="translate(24.658 67.137)"/>
    <rect id="Rectangle_28" data-name="Rectangle 28" width="2.399" height="2.389" transform="translate(36.652 67.137)"/>
    <rect id="Rectangle_29" data-name="Rectangle 29" width="2.399" height="2.389" transform="translate(48.647 67.137)"/>
    <rect id="Rectangle_30" data-name="Rectangle 30" width="2.399" height="2.389" transform="translate(60.642 67.137)"/>
    <rect id="Rectangle_31" data-name="Rectangle 31" width="2.399" height="2.389" transform="translate(72.637 67.137)"/>
    <path id="Path_82" data-name="Path 82" d="M99.917,87.511V72.4h15.17" fill="none" stroke="#000" stroke-linejoin="bevel" stroke-width="4.988"/>
  </g>
</svg>
