<svg xmlns="http://www.w3.org/2000/svg" width="101.001" height="113" viewBox="0 0 101.001 113">
  <g id="_24h" data-name="24h" transform="translate(-1.5 -1.501)">
    <ellipse id="Ellipse_5" data-name="Ellipse 5" cx="48" cy="48.011" rx="48" ry="48.011" transform="translate(4 15.979)" fill="none" stroke="#000" stroke-miterlimit="10" stroke-width="5.001"/>
    <ellipse id="Ellipse_6" data-name="Ellipse 6" cx="40" cy="40.009" rx="40" ry="40.009" transform="translate(12 23.98)" fill="none" stroke="#000" stroke-miterlimit="10" stroke-width="2"/>
    <line id="Line_41" data-name="Line 41" x1="24.171" y2="13.96" transform="translate(52 50.03)" fill="none" stroke="#000" stroke-miterlimit="10" stroke-width="2"/>
    <line id="Line_42" data-name="Line 42" x1="6.928" y2="4.001" transform="translate(45.072 63.989)" fill="none" stroke="#000" stroke-miterlimit="10" stroke-width="2"/>
    <line id="Line_43" data-name="Line 43" x2="0.001" y2="5.388" transform="translate(51.999 23.98)" fill="none" stroke="#000" stroke-miterlimit="10" stroke-width="2"/>
    <line id="Line_44" data-name="Line 44" x2="0.001" y2="10.055" transform="translate(51.999 5.31)" fill="none" stroke="#000" stroke-miterlimit="10" stroke-width="5.001"/>
    <line id="Line_45" data-name="Line 45" x1="16" y2="0.003" transform="translate(43.973 4.001)" fill="none" stroke="#000" stroke-miterlimit="10" stroke-width="5.001"/>
    <line id="Line_46" data-name="Line 46" x2="0.001" y2="5.388" transform="translate(51.999 98.61)" fill="none" stroke="#000" stroke-miterlimit="10" stroke-width="2"/>
    <line id="Line_47" data-name="Line 47" x1="5.386" y2="0.001" transform="translate(86.614 63.987)" fill="none" stroke="#000" stroke-miterlimit="10" stroke-width="2"/>
    <line id="Line_48" data-name="Line 48" x1="5.386" y2="0.001" transform="translate(12 63.987)" fill="none" stroke="#000" stroke-miterlimit="10" stroke-width="2"/>
    <ellipse id="Ellipse_7" data-name="Ellipse 7" cx="4" cy="4.001" rx="4" ry="4.001" transform="translate(48 59.988)"/>
    <line id="Line_49" data-name="Line 49" x1="3.808" y2="3.81" transform="translate(89.95 22.221)" fill="none" stroke="#000" stroke-miterlimit="10" stroke-width="5.001"/>
    <line id="Line_50" data-name="Line 50" x2="3.808" y2="3.81" transform="translate(10.241 22.221)" fill="none" stroke="#000" stroke-miterlimit="10" stroke-width="5.001"/>
  </g>
</svg>
