<svg xmlns="http://www.w3.org/2000/svg" width="61" height="61" viewBox="0 0 61 61">
  <path id="Ellipse_3" data-name="Ellipse 3" d="M831.5,2578a30.4,30.4,0,1,1,11.872-2.4A30.31,30.31,0,0,1,831.5,2578Zm-10-46a1.679,1.679,0,0,0-1.164.487l-3.582,3.585c-.992.993-1,2.684-.031,5.027,1.559,3.76,5.592,8.9,10.526,13.424,5.107,4.679,9.845,7.472,12.673,7.472a2.747,2.747,0,0,0,2-.725l3.582-3.686a1.522,1.522,0,0,0,.48-1.261,1.015,1.015,0,0,0-.48-.83l-5.472-3.287a2.462,2.462,0,0,0-1.187-.376,1.237,1.237,0,0,0-.9.376l-2.488,2.49a37.486,37.486,0,0,1-6.964-5.478,34.468,34.468,0,0,1-5.274-6.673l2.488-2.49a1.677,1.677,0,0,0,0-2.19l-3.283-5.378A1.02,1.02,0,0,0,821.5,2532Z" transform="translate(-801 -2517)" fill="#343434"/>
</svg>
