<svg xmlns="http://www.w3.org/2000/svg" width="174" height="128" viewBox="0 0 174 128">
  <g id="Vector_Smart_Object" data-name="Vector Smart Object" transform="translate(-32.341 -22.184)">
    <g id="Group_22" data-name="Group 22">
      <g id="Group_18" data-name="Group 18">
        <path id="Path_91" data-name="Path 91" d="M64.671,138.159H67.2c4.1,0,6.495,2.29,6.495,5.943s-2.375,5.942-6.495,5.942h-2.53ZM67.115,149.4c3.928,0,5.83-2.185,5.83-5.3s-1.9-5.3-5.83-5.3h-1.73V149.4Z"/>
        <path id="Path_92" data-name="Path 92" d="M79.822,138.159h.715v11.885h-.715Z"/>
        <path id="Path_93" data-name="Path 93" d="M90.953,138.021h.21l4.82,12.023h-.735l-.908-2.307H87.776l-.909,2.307h-.714Zm3.126,9.088-2.672-6.781a10.471,10.471,0,0,1-.348-1.084,10.746,10.746,0,0,1-.348,1.084l-2.69,6.781Z"/>
        <path id="Path_94" data-name="Path 94" d="M101.592,138.021h.174l5.36,7.06,5.36-7.06h.175v12.023h-.682v-9.437c0-.42.034-1.031.034-1.031a9.884,9.884,0,0,1-.646.979l-4.172,5.488H107l-4.121-5.488a11.413,11.413,0,0,1-.644-.979s.033.611.033,1.031v9.437h-.68Z"/>
        <path id="Path_95" data-name="Path 95" d="M118.735,144.1a6.076,6.076,0,1,1,6.075,6.083A5.921,5.921,0,0,1,118.735,144.1Zm11.419,0a5.344,5.344,0,1,0-5.344,5.435A5.258,5.258,0,0,0,130.154,144.1Z"/>
        <path id="Path_96" data-name="Path 96" d="M138.112,140.327c-.226-.3-.54-.787-.54-.787s.05.541.05.891v9.612h-.662V138.021h.209l7.594,9.856c.227.3.542.787.542.787s-.052-.542-.052-.891v-9.614h.663v12.025h-.21Z"/>
        <path id="Path_97" data-name="Path 97" d="M152.731,138.159h2.532c4.1,0,6.494,2.29,6.494,5.943s-2.374,5.942-6.494,5.942h-2.532Zm2.445,11.239c3.929,0,5.83-2.185,5.83-5.3s-1.9-5.3-5.83-5.3h-1.729V149.4Z"/>
        <path id="Path_98" data-name="Path 98" d="M166.522,147.807l.611-.3a3.487,3.487,0,0,0,3.352,2.045,2.542,2.542,0,0,0,2.829-2.413c0-1.38-.769-2.132-2.427-2.9l-1.1-.507c-1.659-.77-2.48-1.555-2.48-3.058a2.688,2.688,0,0,1,2.915-2.657,3.378,3.378,0,0,1,3.039,1.712l-.559.368a2.705,2.705,0,0,0-2.48-1.451,1.97,1.97,0,0,0-2.217,2.009c0,1.188.594,1.765,2.06,2.446l1.1.507c1.92.874,2.846,1.887,2.846,3.53,0,1.853-1.468,3.042-3.51,3.042A4.108,4.108,0,0,1,166.522,147.807Z"/>
      </g>
      <g id="Group_19" data-name="Group 19">
        <path id="Path_99" data-name="Path 99" d="M146.668,38.975a.226.226,0,0,0-.027-.074,26.663,26.663,0,0,0-14.784-14.8.236.236,0,0,0-.075-.029,26.812,26.812,0,0,0-19.768,0,.226.226,0,0,0-.089.034A26.66,26.66,0,0,0,97.15,38.894a.23.23,0,0,0-.032.087,26.886,26.886,0,0,0,0,19.772.242.242,0,0,0,.041.109,26.674,26.674,0,0,0,14.763,14.776.241.241,0,0,0,.1.039,26.814,26.814,0,0,0,19.752,0,.246.246,0,0,0,.089-.034,26.666,26.666,0,0,0,14.775-14.79.221.221,0,0,0,.032-.086A26.884,26.884,0,0,0,146.668,38.975Zm1.4,9.655h-5.438l3.785-8.948A26.373,26.373,0,0,1,148.07,48.63ZM122.136,22.671a26.263,26.263,0,0,1,8.938,1.654l-8.938,3.788Zm-.484,0v5.443l-8.936-3.789A26.286,26.286,0,0,1,121.652,22.671ZM97.371,39.684l3.785,8.947H95.718A26.358,26.358,0,0,1,97.371,39.684Zm-1.653,9.431h5.436L97.37,58.06A26.375,26.375,0,0,1,95.718,49.115Zm25.933,25.959a26.269,26.269,0,0,1-8.937-1.654l8.937-3.789Zm.485,0V69.632l8.937,3.789A26.269,26.269,0,0,1,122.136,75.074Zm23.824-15.869a26.061,26.061,0,0,1-5.377,8.032l-2.855-2.857-.341.343,2.854,2.856a26.026,26.026,0,0,1-8.024,5.383l3.706-8.24h-.532l-3.776,8.4-9.626-4.081a.228.228,0,0,0-.039-.006.248.248,0,0,0-.055-.009.231.231,0,0,0-.058.01.145.145,0,0,0-.036.006l-9.625,4.08-3.776-8.4h-.532l3.7,8.239a26.026,26.026,0,0,1-8.024-5.383l2.854-2.856-.341-.343-2.854,2.856a26.033,26.033,0,0,1-5.377-8.031l8.231,3.709v-.531L97.667,58.6l4.076-9.635c0-.011,0-.023,0-.034a.225.225,0,0,0,.01-.063.205.205,0,0,0-.007-.053.314.314,0,0,0-.007-.041l-4.076-9.635,8.391-3.78v-.531l-8.231,3.709a26.055,26.055,0,0,1,5.377-8.032l2.854,2.856.343-.342-2.855-2.857a26.059,26.059,0,0,1,8.024-5.383l-3.7,8.24h.531l3.777-8.4L121.8,28.7a.16.16,0,0,0,.035.005.189.189,0,0,0,.058.01.222.222,0,0,0,.058-.009.3.3,0,0,0,.036-.006l9.625-4.08,3.777,8.4h.532l-3.707-8.241a26.051,26.051,0,0,1,8.025,5.384l-2.854,2.856.341.343,2.855-2.856a26.037,26.037,0,0,1,5.378,8.033l-8.234-3.711v.532l8.391,3.781-4.076,9.634a3.2,3.2,0,0,0-.013.093.3.3,0,0,0,.008.063c0,.011,0,.023,0,.033l4.077,9.635-8.392,3.781v.531Zm.457-1.144-3.785-8.947h5.438A26.367,26.367,0,0,1,146.417,58.062Z"/>
        <path id="Path_100" data-name="Path 100" d="M136.058,63.05H117.537l.484.485h18.521V56.468l-.484.484Z"/>
        <path id="Path_101" data-name="Path 101" d="M136.058,34.694V53.243l.483-.485V34.21h-7.069l.483.485Z"/>
        <path id="Path_102" data-name="Path 102" d="M107.73,63.051V44.521l-.485.484v18.53h7.069l-.483-.485Z"/>
        <path id="Path_103" data-name="Path 103" d="M107.73,34.7h18.52l-.484-.486H107.245V41.3l.485-.485Z"/>
        <path id="Path_104" data-name="Path 104" d="M134.986,41.241,123.192,29.436l-.4.168v.119l12.192,12.2Z"/>
        <path id="Path_105" data-name="Path 105" d="M120.993,29.723V29.6l-.4-.168-3.7,3.707h.685Z"/>
        <path id="Path_106" data-name="Path 106" d="M141.145,47.971l.168-.4-3.705-3.709v.685l3.417,3.421Z"/>
        <path id="Path_107" data-name="Path 107" d="M141.145,49.775h-.122l-12.2,12.216h.685l11.809-11.821Z"/>
        <path id="Path_108" data-name="Path 108" d="M108.792,56.494,120.6,68.31l.4-.168v-.121l-12.2-12.213Z"/>
        <path id="Path_109" data-name="Path 109" d="M122.794,68.021v.121l.4.168,3.691-3.7H126.2Z"/>
        <path id="Path_110" data-name="Path 110" d="M102.643,49.775l-.168.4,3.7,3.7v-.686l-3.407-3.411Z"/>
        <path id="Path_111" data-name="Path 111" d="M114.271,35.766l-11.8,11.807.167.4h.12l12.194-12.205Z"/>
      </g>
      <g id="Group_21" data-name="Group 21">
        <path id="Path_112" data-name="Path 112" d="M156.8,124.481h5.183V92.5H156.8v-.654h8.874c.747,0,1.495-.046,2.242-.094.747,0,1.494-.047,2.241-.047,3.642,0,6.352.14,8.781,2.057a7.5,7.5,0,0,1,2.988,5.843c0,1.824-.981,6.5-8.219,7.434v.094c2.008.281,7.472,1.169,8.687,5.423.7,2.431.513,6.826.981,8.976.374,1.637,1.027,3.179,2.848,3.179a3.682,3.682,0,0,0,2.43-.982l.42.515c-.654.514-1.495,1.215-4.11,1.215-5,0-6.306-2.478-6.679-7.2l-.327-4.254c-.467-6.265-4.484-6.405-6.632-6.405h-4.67v16.877h5.184v.655H156.8Zm9.855-17.532h4.3c3.456,0,5.838-1.5,5.838-7.246,0-6.545-3.689-7.34-6.959-7.34a31.209,31.209,0,0,0-3.176.14Z"/>
        <path id="Path_113" data-name="Path 113" d="M191.3,124.481h5.185V92.5H191.3v-.654h15.04V92.5h-5.185v31.978h5.185v.655H191.3Z"/>
        <path id="Path_114" data-name="Path 114" d="M32.341,124.481h4.11l12.61-33.474h1.121l12.7,33.474h4.157v.655H52.658v-.655h5.185l-4.9-13H42.1l-4.9,13h5.184v.655H32.341ZM47.521,97.226l-5.137,13.6H52.658Z"/>
        <path id="Path_115" data-name="Path 115" d="M96.286,125.136h-.7a2.415,2.415,0,0,0-2.055-.982c-1.821,0-4.344,1.683-8.64,1.683a15.189,15.189,0,0,1-10.976-4.581,17.509,17.509,0,0,1-5.371-12.669c0-9.35,7.146-17.579,16.674-17.579,3.876,0,5.792,1.824,7.66,1.824a2.246,2.246,0,0,0,2.055-.982h.7v9.35h-.514C94,96.431,91.942,91.662,84.8,91.662c-9.949,0-10.883,9.911-10.883,16.925,0,13.137,4.437,16.6,10.883,16.6,8.313,0,9.714-5.236,10.975-10h.514Z"/>
        <g id="Group_20" data-name="Group 20">
          <path id="Path_116" data-name="Path 116" d="M151.569,124.481l-12.7-33.474h-1.122l-1.927,5.117,10.627,28,.081.355H141.34v.655h14.386v-.655Z"/>
        </g>
        <path id="Path_117" data-name="Path 117" d="M127.356,118.581a10.811,10.811,0,0,1-9.974,5.9h-4.3V92.5h5.185v-.654h-15.04V92.5h5.184v31.978h-5.184v.655h22.782l2.47-6.556Z"/>
      </g>
    </g>
  </g>
</svg>
